<svg width="42" height="57" viewBox="0 0 42 57" fill="none" xmlns="http://www.w3.org/2000/svg">
<path d="M42 0H0V56.9971H42V0Z" fill="#15418C"/>
<path d="M16.6332 32.6612V49.3885H13.0966V36.0181H12.9986L9.16797 38.4194V35.283L13.3089 32.6612H16.6332ZM26.7181 49.6172C25.5638 49.6172 24.5347 49.4048 23.6308 48.9801C22.7323 48.5554 22.019 47.97 21.4909 47.2241C20.9627 46.4781 20.6877 45.6232 20.6659 44.6594H24.0963C24.1344 45.3074 24.4067 45.8329 24.9131 46.2358C25.4195 46.6387 26.0212 46.8402 26.7181 46.8402C27.2735 46.8402 27.7636 46.7177 28.1883 46.4727C28.6185 46.2222 28.9533 45.8764 29.1929 45.4354C29.4379 44.9889 29.5605 44.477 29.5605 43.8999C29.5605 43.3118 29.4352 42.7945 29.1847 42.348C28.9397 41.9015 28.5994 41.553 28.1638 41.3026C27.7282 41.0521 27.23 40.9241 26.6691 40.9187C26.1791 40.9187 25.7026 41.0194 25.2398 41.2209C24.7824 41.4223 24.4258 41.6973 24.1698 42.0458L21.0253 41.4822L21.8176 32.6612H32.0434V35.5526H24.7334L24.3005 39.7425H24.3985C24.6926 39.3287 25.1363 38.9857 25.7298 38.7134C26.3234 38.4412 26.9877 38.305 27.7227 38.305C28.7301 38.305 29.6285 38.5419 30.4181 39.0156C31.2076 39.4893 31.8311 40.14 32.2884 40.9677C32.7458 41.7899 32.9718 42.7373 32.9664 43.81C32.9718 44.9371 32.7104 45.939 32.1823 46.8157C31.6595 47.6869 30.9272 48.373 29.9852 48.8739C29.0486 49.3694 27.9596 49.6172 26.7181 49.6172Z" fill="white"/>
<path d="M40 2H2V25H40V2Z" fill="white"/>
<path d="M14.9536 7.91426V17.6112H13.1827L8.96401 11.508H8.89299V17.6112H6.8428V7.91426H8.64204L12.8276 14.0127H12.9129V7.91426H14.9536ZM25.5584 12.7627C25.5584 13.8202 25.358 14.7198 24.9571 15.4616C24.5594 16.2034 24.0164 16.77 23.3283 17.1614C22.6433 17.5497 21.8731 17.7438 21.0177 17.7438C20.156 17.7438 19.3826 17.5481 18.6976 17.1567C18.0127 16.7652 17.4713 16.1986 17.0736 15.4569C16.6759 14.7151 16.477 13.817 16.477 12.7627C16.477 11.7053 16.6759 10.8057 17.0736 10.0639C17.4713 9.32209 18.0127 8.75706 18.6976 8.36881C19.3826 7.97739 20.156 7.78169 21.0177 7.78169C21.8731 7.78169 22.6433 7.97739 23.3283 8.36881C24.0164 8.75706 24.5594 9.32209 24.9571 10.0639C25.358 10.8057 25.5584 11.7053 25.5584 12.7627ZM23.4798 12.7627C23.4798 12.0778 23.3772 11.5001 23.1721 11.0298C22.97 10.5595 22.6844 10.2028 22.3151 9.95971C21.9457 9.71666 21.5133 9.59513 21.0177 9.59513C20.5221 9.59513 20.0897 9.71666 19.7204 9.95971C19.3511 10.2028 19.0638 10.5595 18.8586 11.0298C18.6566 11.5001 18.5556 12.0778 18.5556 12.7627C18.5556 13.4477 18.6566 14.0254 18.8586 14.4957C19.0638 14.966 19.3511 15.3227 19.7204 15.5658C20.0897 15.8088 20.5221 15.9303 21.0177 15.9303C21.5133 15.9303 21.9457 15.8088 22.3151 15.5658C22.6844 15.3227 22.97 14.966 23.1721 14.4957C23.3772 14.0254 23.4798 13.4477 23.4798 12.7627ZM28.2821 7.91426L30.6259 15.2817H30.7158L33.0643 7.91426H35.337L31.9943 17.6112H29.3522L26.0047 7.91426H28.2821Z" fill="black"/>
</svg>
