<svg width="21" height="27" viewBox="0 0 21 27" fill="none" xmlns="http://www.w3.org/2000/svg">
<path fill-rule="evenodd" clip-rule="evenodd" d="M20.1923 3H0.807692V26H20.1923V3ZM0.807692 2C0.361616 2 0 2.44772 0 3V26C0 26.5523 0.361617 27 0.807693 27H20.1923C20.6384 27 21 26.5523 21 26V3C21 2.44772 20.6384 2 20.1923 2H0.807692Z" fill="black"/>
<path d="M0 3C0 2.44772 0.361616 2 0.807692 2H20.1923C20.6384 2 21 2.44772 21 3V9H0V3Z" fill="#8F0A0E"/>
<path d="M4 5.5C4 6.32843 3.32843 7 2.5 7C1.67157 7 1 6.32843 1 5.5C1 4.67157 1.67157 4 2.5 4C3.32843 4 4 4.67157 4 5.5Z" fill="#FFFEFE"/>
<path d="M20 5.5C20 6.32843 19.3284 7 18.5 7C17.6716 7 17 6.32843 17 5.5C17 4.67157 17.6716 4 18.5 4C19.3284 4 20 4.67157 20 5.5Z" fill="#FFFEFE"/>
<path fill-rule="evenodd" clip-rule="evenodd" d="M2.5 0C2.77614 0 3 0.447715 3 1L3 5C3 5.55228 2.77614 6 2.5 6C2.22386 6 2 5.55228 2 5L2 1C2 0.447715 2.22386 0 2.5 0Z" fill="black"/>
<path fill-rule="evenodd" clip-rule="evenodd" d="M18.5 0C18.7761 0 19 0.447715 19 1V5C19 5.55228 18.7761 6 18.5 6C18.2239 6 18 5.55228 18 5V1C18 0.447715 18.2239 0 18.5 0Z" fill="black"/>
<path d="M7.95703 22H6.14648V17.043C6.14648 16.9062 6.14844 16.7383 6.15234 16.5391C6.15625 16.3359 6.16211 16.1289 6.16992 15.918C6.17773 15.7031 6.18555 15.5098 6.19336 15.3379C6.15039 15.3887 6.0625 15.4766 5.92969 15.6016C5.80078 15.7227 5.67969 15.832 5.56641 15.9297L4.58203 16.7207L3.70898 15.6309L6.46875 13.4336H7.95703V22Z" fill="black"/>
<path d="M13.4648 16.5273C13.9883 16.5273 14.4531 16.627 14.8594 16.8262C15.2695 17.0254 15.5918 17.3184 15.8262 17.7051C16.0605 18.0918 16.1777 18.5684 16.1777 19.1348C16.1777 19.752 16.0488 20.2852 15.791 20.7344C15.5371 21.1797 15.1562 21.5215 14.6484 21.7598C14.1445 21.998 13.5156 22.1172 12.7617 22.1172C12.3125 22.1172 11.8887 22.0781 11.4902 22C11.0957 21.9258 10.75 21.8105 10.4531 21.6543V20.0898C10.75 20.2461 11.1055 20.3789 11.5195 20.4883C11.9375 20.5938 12.3301 20.6465 12.6973 20.6465C13.0566 20.6465 13.3594 20.5996 13.6055 20.5059C13.8516 20.4082 14.0371 20.2598 14.1621 20.0605C14.291 19.8574 14.3555 19.5996 14.3555 19.2871C14.3555 18.8691 14.2148 18.5488 13.9336 18.3262C13.6523 18.1035 13.2207 17.9922 12.6387 17.9922C12.416 17.9922 12.1836 18.0137 11.9414 18.0566C11.7031 18.0996 11.5039 18.1426 11.3438 18.1855L10.623 17.7988L10.9453 13.4336H15.5918V14.9688H12.5332L12.375 16.6504C12.5078 16.623 12.6523 16.5957 12.8086 16.5684C12.9648 16.541 13.1836 16.5273 13.4648 16.5273Z" fill="black"/>
<path d="M6.84943 7.00001H6.09375L7.07528 4.09092H8.01136L8.9929 7.00001H8.23722L7.55398 4.82387H7.53125L6.84943 7.00001ZM6.74858 5.85512H8.32812V6.38922H6.74858V5.85512Z" fill="white"/>
<path d="M11.0661 4.09092H11.7678V5.96734C11.7678 6.1842 11.7161 6.37312 11.6129 6.5341C11.5097 6.69414 11.3658 6.81819 11.1811 6.90626C10.9964 6.99338 10.782 7.03694 10.5376 7.03694C10.2905 7.03694 10.0746 6.99338 9.88991 6.90626C9.70526 6.81819 9.56179 6.69414 9.45952 6.5341C9.35724 6.37312 9.30611 6.1842 9.30611 5.96734V4.09092H10.0092V5.90626C10.0092 6.00664 10.031 6.09613 10.0746 6.17473C10.1191 6.25333 10.1811 6.31488 10.2607 6.35939C10.3402 6.40389 10.4325 6.42615 10.5376 6.42615C10.6428 6.42615 10.7346 6.40389 10.8132 6.35939C10.8928 6.31488 10.9548 6.25333 10.9993 6.17473C11.0438 6.09613 11.0661 6.00664 11.0661 5.90626V4.09092Z" fill="white"/>
<path d="M14.1175 5.0412C14.1014 4.98155 14.0778 4.92899 14.0465 4.88353C14.0153 4.83713 13.9769 4.79783 13.9315 4.76564C13.886 4.73344 13.8339 4.70929 13.7752 4.69319C13.7165 4.67615 13.6521 4.66762 13.582 4.66762C13.4409 4.66762 13.3188 4.70172 13.2156 4.7699C13.1133 4.83808 13.0342 4.93751 12.9783 5.06819C12.9225 5.19793 12.8945 5.3556 12.8945 5.5412C12.8945 5.72776 12.9215 5.88685 12.9755 6.01848C13.0295 6.15011 13.1076 6.25048 13.2099 6.31961C13.3121 6.38874 13.4362 6.42331 13.582 6.42331C13.7108 6.42331 13.8197 6.40247 13.9087 6.36081C13.9987 6.31819 14.0669 6.25806 14.1133 6.18041C14.1597 6.10276 14.1829 6.01137 14.1829 5.90626L14.3136 5.92189H13.6062V5.4091H14.8604V5.79405C14.8604 6.05446 14.805 6.27747 14.6942 6.46308C14.5844 6.64869 14.4329 6.7912 14.2397 6.89064C14.0475 6.99007 13.8263 7.03978 13.5763 7.03978C13.2989 7.03978 13.055 6.97965 12.8448 6.85939C12.6346 6.73912 12.4708 6.56772 12.3533 6.34518C12.2359 6.1217 12.1772 5.85655 12.1772 5.54973C12.1772 5.31109 12.2127 5.09944 12.2837 4.91478C12.3548 4.72918 12.4537 4.57198 12.5806 4.44319C12.7085 4.31441 12.8562 4.21687 13.0238 4.15058C13.1924 4.08429 13.3737 4.05115 13.5678 4.05115C13.7364 4.05115 13.8931 4.0753 14.038 4.12359C14.1838 4.17189 14.3126 4.24007 14.4244 4.32814C14.537 4.4162 14.6284 4.52084 14.6985 4.64206C14.7686 4.76327 14.8121 4.89632 14.8292 5.0412H14.1175Z" fill="white"/>
</svg>
