<svg width="26" height="27" viewBox="0 0 26 27" fill="none" xmlns="http://www.w3.org/2000/svg">
<path fill-rule="evenodd" clip-rule="evenodd" d="M25 3H1V26H25V3ZM1 2C0.447715 2 0 2.44772 0 3V26C0 26.5523 0.447716 27 1 27H25C25.5523 27 26 26.5523 26 26V3C26 2.44772 25.5523 2 25 2H1Z" fill="black"/>
<path d="M0 3C0 2.44772 0.447715 2 1 2H25C25.5523 2 26 2.44772 26 3V9H0V3Z" fill="#8F0A0E"/>
<path fill-rule="evenodd" clip-rule="evenodd" d="M5 0C5.55228 0 6 0.447715 6 1V5C6 5.55228 5.55228 6 5 6C4.44772 6 4 5.55228 4 5V1C4 0.447715 4.44772 0 5 0Z" fill="black"/>
<path fill-rule="evenodd" clip-rule="evenodd" d="M21 0C21.5523 0 22 0.447715 22 1V5C22 5.55228 21.5523 6 21 6C20.4477 6 20 5.55228 20 5V1C20 0.447715 20.4477 0 21 0Z" fill="black"/>
<path d="M9.07568 8.0498C8.97803 8.0498 8.89258 8.04411 8.81934 8.03271C8.74447 8.02295 8.68099 8.01074 8.62891 7.99609V7.36621C8.68099 7.3776 8.73714 7.38818 8.79736 7.39795C8.85596 7.40934 8.91862 7.41504 8.98535 7.41504C9.07324 7.41504 9.15218 7.39795 9.22217 7.36377C9.29215 7.33122 9.34749 7.26855 9.38818 7.17578C9.42887 7.08301 9.44922 6.94954 9.44922 6.77539V3.43066H10.2061V6.77051C10.2061 7.0765 10.158 7.32308 10.062 7.51025C9.96761 7.69906 9.83496 7.83577 9.66406 7.92041C9.49479 8.00667 9.29867 8.0498 9.07568 8.0498Z" fill="white"/>
<path d="M13.2896 7L13.0308 6.15039H11.7295L11.4707 7H10.6553L11.915 3.41602H12.8403L14.105 7H13.2896ZM12.8501 5.51562L12.5913 4.68555C12.575 4.63021 12.5531 4.55941 12.5254 4.47314C12.4993 4.38525 12.4725 4.29655 12.4448 4.20703C12.4188 4.11589 12.3976 4.03695 12.3813 3.97021C12.3651 4.03695 12.3423 4.11995 12.313 4.21924C12.2853 4.31689 12.2585 4.40967 12.2324 4.49756C12.2064 4.58545 12.1877 4.64811 12.1763 4.68555L11.9199 5.51562H12.8501Z" fill="white"/>
<path d="M17.7231 7H16.7612L15.2085 4.2998H15.1865C15.193 4.41211 15.1987 4.52523 15.2036 4.63916C15.2085 4.75309 15.2134 4.86702 15.2183 4.98096C15.2231 5.09326 15.228 5.20638 15.2329 5.32031V7H14.5566V3.43066H15.5112L17.0615 6.104H17.0786C17.0754 5.99333 17.0713 5.88346 17.0664 5.77441C17.0615 5.66536 17.0566 5.55632 17.0518 5.44727C17.0485 5.33822 17.0452 5.22917 17.042 5.12012V3.43066H17.7231V7Z" fill="white"/>
<path d="M10.957 22H9.14648V17.043C9.14648 16.9062 9.14844 16.7383 9.15234 16.5391C9.15625 16.3359 9.16211 16.1289 9.16992 15.918C9.17773 15.7031 9.18555 15.5098 9.19336 15.3379C9.15039 15.3887 9.0625 15.4766 8.92969 15.6016C8.80078 15.7227 8.67969 15.832 8.56641 15.9297L7.58203 16.7207L6.70898 15.6309L9.46875 13.4336H10.957V22Z" fill="black"/>
<path d="M16.4648 16.5273C16.9883 16.5273 17.4531 16.627 17.8594 16.8262C18.2695 17.0254 18.5918 17.3184 18.8262 17.7051C19.0605 18.0918 19.1777 18.5684 19.1777 19.1348C19.1777 19.752 19.0488 20.2852 18.791 20.7344C18.5371 21.1797 18.1562 21.5215 17.6484 21.7598C17.1445 21.998 16.5156 22.1172 15.7617 22.1172C15.3125 22.1172 14.8887 22.0781 14.4902 22C14.0957 21.9258 13.75 21.8105 13.4531 21.6543V20.0898C13.75 20.2461 14.1055 20.3789 14.5195 20.4883C14.9375 20.5938 15.3301 20.6465 15.6973 20.6465C16.0566 20.6465 16.3594 20.5996 16.6055 20.5059C16.8516 20.4082 17.0371 20.2598 17.1621 20.0605C17.291 19.8574 17.3555 19.5996 17.3555 19.2871C17.3555 18.8691 17.2148 18.5488 16.9336 18.3262C16.6523 18.1035 16.2207 17.9922 15.6387 17.9922C15.416 17.9922 15.1836 18.0137 14.9414 18.0566C14.7031 18.0996 14.5039 18.1426 14.3438 18.1855L13.623 17.7988L13.9453 13.4336H18.5918V14.9688H15.5332L15.375 16.6504C15.5078 16.623 15.6523 16.5957 15.8086 16.5684C15.9648 16.541 16.1836 16.5273 16.4648 16.5273Z" fill="black"/>
</svg>
