<svg width="43" height="55" viewBox="0 0 43 55" fill="none" xmlns="http://www.w3.org/2000/svg">
<path d="M43 0H0V55H43V0Z" fill="#15418C"/>
<path d="M16.6332 31.2727V48H13.0966V34.6296H12.9986L9.16797 37.0309V33.8945L13.3089 31.2727H16.6332ZM26.7181 48.2287C25.5638 48.2287 24.5347 48.0163 23.6308 47.5916C22.7323 47.1669 22.019 46.5816 21.4909 45.8356C20.9627 45.0896 20.6877 44.2347 20.6659 43.271H24.0963C24.1344 43.9189 24.4067 44.4444 24.9131 44.8473C25.4195 45.2502 26.0212 45.4517 26.7181 45.4517C27.2735 45.4517 27.7636 45.3292 28.1883 45.0842C28.6185 44.8337 28.9533 44.4879 29.1929 44.0469C29.4379 43.6004 29.5605 43.0885 29.5605 42.5114C29.5605 41.9233 29.4352 41.406 29.1847 40.9595C28.9397 40.513 28.5994 40.1645 28.1638 39.9141C27.7282 39.6636 27.23 39.5356 26.6691 39.5302C26.1791 39.5302 25.7026 39.6309 25.2398 39.8324C24.7824 40.0339 24.4258 40.3088 24.1698 40.6573L21.0253 40.0938L21.8176 31.2727H32.0434V34.1641H24.7334L24.3005 38.354H24.3985C24.6926 37.9402 25.1363 37.5972 25.7298 37.3249C26.3234 37.0527 26.9877 36.9165 27.7227 36.9165C28.7301 36.9165 29.6285 37.1534 30.4181 37.6271C31.2076 38.1009 31.8311 38.7515 32.2884 39.5792C32.7458 40.4014 32.9718 41.3488 32.9664 42.4215C32.9718 43.5487 32.7104 44.5505 32.1823 45.4272C31.6595 46.2984 30.9272 46.9845 29.9852 47.4854C29.0486 47.9809 27.9596 48.2287 26.7181 48.2287Z" fill="white"/>
<path d="M41 2H2V25H41V2Z" fill="white"/>
<path d="M5.94815 8.09091H8.79261L11.7969 15.4205H11.9247L14.929 8.09091H17.7734V19H15.5362V11.8995H15.4457L12.6225 18.9467H11.0991L8.27592 11.8729H8.18537V19H5.94815V8.09091ZM21.5541 19H19.0825L22.8485 8.09091H25.8208L29.5814 19H27.1098L24.3772 10.5838H24.292L21.5541 19ZM21.3996 14.712H27.2377V16.5124H21.3996V14.712ZM29.142 8.09091H31.7254L34.213 12.7891H34.3195L36.8071 8.09091H39.3905L35.4115 15.1435V19H33.121V15.1435L29.142 8.09091Z" fill="black"/>
</svg>
