<svg width="42" height="57" viewBox="0 0 42 57" fill="none" xmlns="http://www.w3.org/2000/svg">
<g clip-path="url(#clip0_85_20)">
<path d="M42 -0.388489H0V56.6086H42V-0.388489Z" fill="#15418C"/>
<path d="M16.6332 31.8842V48.6115H13.0966V35.2411H12.9986L9.16797 37.6424V34.506L13.3089 31.8842H16.6332ZM26.7181 48.8402C25.5638 48.8402 24.5347 48.6278 23.6308 48.2031C22.7323 47.7784 22.019 47.1931 21.4909 46.4471C20.9627 45.7011 20.6877 44.8462 20.6659 43.8825H24.0963C24.1344 44.5304 24.4067 45.0559 24.9131 45.4588C25.4195 45.8617 26.0212 46.0632 26.7181 46.0632C27.2735 46.0632 27.7636 45.9407 28.1883 45.6957C28.6185 45.4452 28.9533 45.0994 29.1929 44.6584C29.4379 44.2119 29.5605 43.7001 29.5605 43.1229C29.5605 42.5348 29.4352 42.0175 29.1847 41.571C28.9397 41.1245 28.5994 40.776 28.1638 40.5256C27.7282 40.2751 27.23 40.1471 26.6691 40.1417C26.1791 40.1417 25.7026 40.2424 25.2398 40.4439C24.7824 40.6454 24.4258 40.9203 24.1698 41.2688L21.0253 40.7053L21.8176 31.8842H32.0434V34.7756H24.7334L24.3005 38.9656H24.3985C24.6926 38.5517 25.1363 38.2087 25.7298 37.9364C26.3234 37.6642 26.9877 37.5281 27.7227 37.5281C28.7301 37.5281 29.6285 37.7649 30.4181 38.2386C31.2076 38.7124 31.8311 39.363 32.2884 40.1907C32.7458 41.0129 32.9718 41.9604 32.9664 43.033C32.9718 44.1602 32.7104 45.1621 32.1823 46.0387C31.6595 46.9099 30.9272 47.596 29.9852 48.097C29.0486 48.5925 27.9596 48.8402 26.7181 48.8402Z" fill="white"/>
<path d="M40 1.61151H2V24.6115H40V1.61151Z" fill="white"/>
<path d="M13.9536 7.52577V17.2227H12.1827L7.96401 11.1195H7.89299V17.2227H5.8428V7.52577H7.64204L11.8276 13.6242H11.9129V7.52577H13.9536ZM24.5584 12.3742C24.5584 13.4317 24.358 14.3313 23.9571 15.0731C23.5594 15.8149 23.0164 16.3815 22.3283 16.7729C21.6433 17.1612 20.8731 17.3553 20.0177 17.3553C19.156 17.3553 18.3826 17.1596 17.6976 16.7682C17.0127 16.3768 16.4713 15.8102 16.0736 15.0684C15.6759 14.3266 15.477 13.4285 15.477 12.3742C15.477 11.3168 15.6759 10.4172 16.0736 9.67539C16.4713 8.9336 17.0127 8.36857 17.6976 7.98032C18.3826 7.5889 19.156 7.3932 20.0177 7.3932C20.8731 7.3932 21.6433 7.5889 22.3283 7.98032C23.0164 8.36857 23.5594 8.9336 23.9571 9.67539C24.358 10.4172 24.5584 11.3168 24.5584 12.3742ZM22.4798 12.3742C22.4798 11.6893 22.3772 11.1116 22.1721 10.6413C21.97 10.171 21.6844 9.81428 21.3151 9.57122C20.9457 9.32817 20.5133 9.20664 20.0177 9.20664C19.5221 9.20664 19.0897 9.32817 18.7204 9.57122C18.3511 9.81428 18.0638 10.171 17.8586 10.6413C17.6566 11.1116 17.5556 11.6893 17.5556 12.3742C17.5556 13.0592 17.6566 13.6369 17.8586 14.1072C18.0638 14.5775 18.3511 14.9342 18.7204 15.1773C19.0897 15.4203 19.5221 15.5419 20.0177 15.5419C20.5133 15.5419 20.9457 15.4203 21.3151 15.1773C21.6844 14.9342 21.97 14.5775 22.1721 14.1072C22.3772 13.6369 22.4798 13.0592 22.4798 12.3742ZM27.2821 7.52577L29.6259 14.8932H29.7158L32.0643 7.52577H34.337L30.9943 17.2227H28.3522L25.0047 7.52577H27.2821Z" fill="black"/>
</g>
<defs>
<clipPath id="clip0_85_20">
<rect width="42" height="57" fill="white"/>
</clipPath>
</defs>
</svg>
