<svg width="21" height="27" viewBox="0 0 21 27" fill="none" xmlns="http://www.w3.org/2000/svg">
<path fill-rule="evenodd" clip-rule="evenodd" d="M20.1923 3H0.807692V26H20.1923V3ZM0.807692 2C0.361616 2 0 2.44772 0 3V26C0 26.5523 0.361617 27 0.807693 27H20.1923C20.6384 27 21 26.5523 21 26V3C21 2.44772 20.6384 2 20.1923 2H0.807692Z" fill="black"/>
<path d="M0 3C0 2.44772 0.361616 2 0.807692 2H20.1923C20.6384 2 21 2.44772 21 3V9H0V3Z" fill="#8F0A0E"/>
<path d="M4 5.5C4 6.32843 3.32843 7 2.5 7C1.67157 7 1 6.32843 1 5.5C1 4.67157 1.67157 4 2.5 4C3.32843 4 4 4.67157 4 5.5Z" fill="#FFFEFE"/>
<path d="M4 5.5C4 6.32843 3.32843 7 2.5 7C1.67157 7 1 6.32843 1 5.5C1 4.67157 1.67157 4 2.5 4C3.32843 4 4 4.67157 4 5.5Z" fill="#FFFEFE"/>
<path d="M20 5.5C20 6.32843 19.3284 7 18.5 7C17.6716 7 17 6.32843 17 5.5C17 4.67157 17.6716 4 18.5 4C19.3284 4 20 4.67157 20 5.5Z" fill="#FFFEFE"/>
<path fill-rule="evenodd" clip-rule="evenodd" d="M2.5 0C2.77614 0 3 0.447715 3 1L3 5C3 5.55228 2.77614 6 2.5 6C2.22386 6 2 5.55228 2 5L2 1C2 0.447715 2.22386 0 2.5 0Z" fill="black"/>
<path fill-rule="evenodd" clip-rule="evenodd" d="M18.5 0C18.7761 0 19 0.447715 19 1V5C19 5.55228 18.7761 6 18.5 6C18.2239 6 18 5.55228 18 5V1C18 0.447715 18.2239 0 18.5 0Z" fill="black"/>
<path d="M7.95703 22H6.14648V17.043C6.14648 16.9062 6.14844 16.7383 6.15234 16.5391C6.15625 16.3359 6.16211 16.1289 6.16992 15.918C6.17773 15.7031 6.18555 15.5098 6.19336 15.3379C6.15039 15.3887 6.0625 15.4766 5.92969 15.6016C5.80078 15.7227 5.67969 15.832 5.56641 15.9297L4.58203 16.7207L3.70898 15.6309L6.46875 13.4336H7.95703V22Z" fill="black"/>
<path d="M13.4648 16.5273C13.9883 16.5273 14.4531 16.627 14.8594 16.8262C15.2695 17.0254 15.5918 17.3184 15.8262 17.7051C16.0605 18.0918 16.1777 18.5684 16.1777 19.1348C16.1777 19.752 16.0488 20.2852 15.791 20.7344C15.5371 21.1797 15.1562 21.5215 14.6484 21.7598C14.1445 21.998 13.5156 22.1172 12.7617 22.1172C12.3125 22.1172 11.8887 22.0781 11.4902 22C11.0957 21.9258 10.75 21.8105 10.4531 21.6543V20.0898C10.75 20.2461 11.1055 20.3789 11.5195 20.4883C11.9375 20.5938 12.3301 20.6465 12.6973 20.6465C13.0566 20.6465 13.3594 20.5996 13.6055 20.5059C13.8516 20.4082 14.0371 20.2598 14.1621 20.0605C14.291 19.8574 14.3555 19.5996 14.3555 19.2871C14.3555 18.8691 14.2148 18.5488 13.9336 18.3262C13.6523 18.1035 13.2207 17.9922 12.6387 17.9922C12.416 17.9922 12.1836 18.0137 11.9414 18.0566C11.7031 18.0996 11.5039 18.1426 11.3438 18.1855L10.623 17.7988L10.9453 13.4336H15.5918V14.9688H12.5332L12.375 16.6504C12.5078 16.623 12.6523 16.5957 12.8086 16.5684C12.9648 16.541 13.1836 16.5273 13.4648 16.5273Z" fill="black"/>
<path d="M8.69602 4.09092V7.00001H8.09943L6.94176 5.32103H6.92329V7.00001H6.22017V4.09092H6.82528L7.97017 5.76706H7.99432V4.09092H8.69602Z" fill="white"/>
<path d="M11.8839 5.54547C11.8839 5.86554 11.8223 6.13685 11.6992 6.35939C11.5761 6.58192 11.4094 6.75096 11.1992 6.86649C10.9899 6.98202 10.7551 7.03978 10.4947 7.03978C10.2333 7.03978 9.99799 6.98155 9.78871 6.86507C9.57943 6.74859 9.41323 6.57956 9.29013 6.35797C9.16797 6.13543 9.10689 5.86459 9.10689 5.54547C9.10689 5.22539 9.16797 4.95408 9.29013 4.73155C9.41323 4.50901 9.57943 4.33997 9.78871 4.22444C9.99799 4.10891 10.2333 4.05115 10.4947 4.05115C10.7551 4.05115 10.9899 4.10891 11.1992 4.22444C11.4094 4.33997 11.5761 4.50901 11.6992 4.73155C11.8223 4.95408 11.8839 5.22539 11.8839 5.54547ZM11.1651 5.54547C11.1651 5.35607 11.1381 5.19603 11.0842 5.06535C11.0311 4.93467 10.9544 4.83571 10.854 4.76848C10.7546 4.70124 10.6348 4.66762 10.4947 4.66762C10.3555 4.66762 10.2357 4.70124 10.1353 4.76848C10.0349 4.83571 9.95774 4.93467 9.90376 5.06535C9.85073 5.19603 9.82422 5.35607 9.82422 5.54547C9.82422 5.73486 9.85073 5.8949 9.90376 6.02558C9.95774 6.15626 10.0349 6.25522 10.1353 6.32245C10.2357 6.38969 10.3555 6.42331 10.4947 6.42331C10.6348 6.42331 10.7546 6.38969 10.854 6.32245C10.9544 6.25522 11.0311 6.15626 11.0842 6.02558C11.1381 5.8949 11.1651 5.73486 11.1651 5.54547Z" fill="white"/>
<path d="M12.783 4.09092L13.4336 6.2216H13.4577L14.1083 4.09092H14.8952L13.9137 7.00001H12.9776L11.9961 4.09092H12.783Z" fill="white"/>
</svg>
