<svg width="21" height="27" viewBox="0 0 21 27" fill="none" xmlns="http://www.w3.org/2000/svg">
<path fill-rule="evenodd" clip-rule="evenodd" d="M20.1923 3H0.807692V26H20.1923V3ZM0.807692 2C0.361616 2 0 2.44772 0 3V26C0 26.5523 0.361617 27 0.807693 27H20.1923C20.6384 27 21 26.5523 21 26V3C21 2.44772 20.6384 2 20.1923 2H0.807692Z" fill="black"/>
<path d="M0 3C0 2.44772 0.361616 2 0.807692 2H20.1923C20.6384 2 21 2.44772 21 3V9H0V3Z" fill="#8F0A0E"/>
<path d="M4 5.5C4 6.32843 3.32843 7 2.5 7C1.67157 7 1 6.32843 1 5.5C1 4.67157 1.67157 4 2.5 4C3.32843 4 4 4.67157 4 5.5Z" fill="#FFFEFE"/>
<path d="M20 5.5C20 6.32843 19.3284 7 18.5 7C17.6716 7 17 6.32843 17 5.5C17 4.67157 17.6716 4 18.5 4C19.3284 4 20 4.67157 20 5.5Z" fill="#FFFEFE"/>
<path fill-rule="evenodd" clip-rule="evenodd" d="M2.5 0C2.77614 0 3 0.447715 3 1L3 5C3 5.55228 2.77614 6 2.5 6C2.22386 6 2 5.55228 2 5L2 1C2 0.447715 2.22386 0 2.5 0Z" fill="black"/>
<path fill-rule="evenodd" clip-rule="evenodd" d="M18.5 0C18.7761 0 19 0.447715 19 1V5C19 5.55228 18.7761 6 18.5 6C18.2239 6 18 5.55228 18 5V1C18 0.447715 18.2239 0 18.5 0Z" fill="black"/>
<path d="M7.95703 22H6.14648V17.043C6.14648 16.9062 6.14844 16.7383 6.15234 16.5391C6.15625 16.3359 6.16211 16.1289 6.16992 15.918C6.17773 15.7031 6.18555 15.5098 6.19336 15.3379C6.15039 15.3887 6.0625 15.4766 5.92969 15.6016C5.80078 15.7227 5.67969 15.832 5.56641 15.9297L4.58203 16.7207L3.70898 15.6309L6.46875 13.4336H7.95703V22Z" fill="black"/>
<path d="M13.4648 16.5273C13.9883 16.5273 14.4531 16.627 14.8594 16.8262C15.2695 17.0254 15.5918 17.3184 15.8262 17.7051C16.0605 18.0918 16.1777 18.5684 16.1777 19.1348C16.1777 19.752 16.0488 20.2852 15.791 20.7344C15.5371 21.1797 15.1562 21.5215 14.6484 21.7598C14.1445 21.998 13.5156 22.1172 12.7617 22.1172C12.3125 22.1172 11.8887 22.0781 11.4902 22C11.0957 21.9258 10.75 21.8105 10.4531 21.6543V20.0898C10.75 20.2461 11.1055 20.3789 11.5195 20.4883C11.9375 20.5938 12.3301 20.6465 12.6973 20.6465C13.0566 20.6465 13.3594 20.5996 13.6055 20.5059C13.8516 20.4082 14.0371 20.2598 14.1621 20.0605C14.291 19.8574 14.3555 19.5996 14.3555 19.2871C14.3555 18.8691 14.2148 18.5488 13.9336 18.3262C13.6523 18.1035 13.2207 17.9922 12.6387 17.9922C12.416 17.9922 12.1836 18.0137 11.9414 18.0566C11.7031 18.0996 11.5039 18.1426 11.3438 18.1855L10.623 17.7988L10.9453 13.4336H15.5918V14.9688H12.5332L12.375 16.6504C12.5078 16.623 12.6523 16.5957 12.8086 16.5684C12.9648 16.541 13.1836 16.5273 13.4648 16.5273Z" fill="black"/>
<path d="M8.79261 4.96308C8.78314 4.85891 8.741 4.77795 8.66619 4.72018C8.59233 4.66147 8.48674 4.63211 8.34943 4.63211C8.25852 4.63211 8.18276 4.64395 8.12216 4.66762C8.06155 4.6913 8.0161 4.72397 7.98579 4.76564C7.95549 4.80636 7.93986 4.85323 7.93892 4.90626C7.93702 4.94982 7.94555 4.98817 7.96449 5.02132C7.98437 5.05446 8.01278 5.08382 8.04971 5.10939C8.08759 5.13401 8.13305 5.15579 8.18608 5.17473C8.23911 5.19367 8.29877 5.21024 8.36505 5.22444L8.61505 5.28126C8.75899 5.31251 8.88589 5.35418 8.99574 5.40626C9.10653 5.45834 9.19933 5.52037 9.27414 5.59234C9.3499 5.66431 9.40719 5.74717 9.44602 5.84092C9.48485 5.93467 9.50473 6.03978 9.50568 6.15626C9.50473 6.33997 9.45833 6.49764 9.36647 6.62927C9.27462 6.7609 9.14252 6.86175 8.97017 6.93183C8.79877 7.00191 8.59185 7.03694 8.34943 7.03694C8.10606 7.03694 7.89394 7.00048 7.71306 6.92757C7.53219 6.85465 7.39157 6.74386 7.29119 6.59518C7.19081 6.44651 7.1392 6.25853 7.13636 6.03126H7.80966C7.81534 6.12501 7.84043 6.20314 7.88494 6.26564C7.92945 6.32814 7.99053 6.37548 8.06818 6.40768C8.14678 6.43988 8.23769 6.45598 8.34091 6.45598C8.4356 6.45598 8.5161 6.44319 8.58238 6.41762C8.64962 6.39206 8.70123 6.35655 8.73721 6.31109C8.7732 6.26564 8.79166 6.21355 8.79261 6.15484C8.79166 6.09992 8.77462 6.05304 8.74147 6.01422C8.70833 5.97444 8.65719 5.94035 8.58806 5.91194C8.51988 5.88259 8.43276 5.8556 8.3267 5.83098L8.02272 5.75995C7.77083 5.70219 7.57244 5.60891 7.42755 5.48012C7.28267 5.35039 7.2107 5.1752 7.21164 4.95456C7.2107 4.77463 7.25899 4.61696 7.35653 4.48155C7.45407 4.34613 7.58901 4.24054 7.76136 4.16478C7.93371 4.08903 8.1302 4.05115 8.35085 4.05115C8.57623 4.05115 8.77178 4.0895 8.9375 4.1662C9.10416 4.24196 9.23342 4.3485 9.32528 4.48581C9.41714 4.62312 9.46401 4.78221 9.46591 4.96308H8.79261Z" fill="white"/>
<path d="M9.86079 7.00001V4.09092H11.8892V4.66194H10.5639V5.25853H11.7855V5.83098H10.5639V6.42899H11.8892V7.00001H9.86079Z" fill="white"/>
<path d="M12.3295 7.00001V4.09092H13.5312C13.749 4.09092 13.937 4.13353 14.0952 4.21876C14.2543 4.30304 14.3769 4.42094 14.4631 4.57245C14.5492 4.72302 14.5923 4.89821 14.5923 5.09802C14.5923 5.29878 14.5483 5.47444 14.4602 5.62501C14.3731 5.77463 14.2486 5.89064 14.0866 5.97302C13.9247 6.05541 13.7325 6.0966 13.5099 6.0966H12.7685V5.54262H13.3793C13.4853 5.54262 13.5739 5.52416 13.6449 5.48723C13.7169 5.4503 13.7713 5.39869 13.8082 5.3324C13.8452 5.26516 13.8636 5.18704 13.8636 5.09802C13.8636 5.00806 13.8452 4.93041 13.8082 4.86507C13.7713 4.79878 13.7169 4.74764 13.6449 4.71166C13.5729 4.67567 13.4844 4.65768 13.3793 4.65768H13.0327V7.00001H12.3295Z" fill="white"/>
</svg>
